<?xml version="1.0" encoding="UTF-8" standalone="no"?>
<!DOCTYPE svg PUBLIC "-//W3C//DTD SVG 1.1//EN" "http://www.w3.org/Graphics/SVG/1.1/DTD/svg11.dtd">
<svg width="100%" height="100%" viewBox="0 0 2481 3508" version="1.1" xmlns="http://www.w3.org/2000/svg" xmlns:xlink="http://www.w3.org/1999/xlink" xml:space="preserve" xmlns:serif="http://www.serif.com/" style="fill-rule:evenodd;clip-rule:evenodd;stroke-linecap:round;stroke-linejoin:round;stroke-miterlimit:1.5;">
    <g transform="matrix(1.36905,0,0,1.36905,-381.494,-829.948)">
        <path d="M804.427,1422.19C804.427,1422.19 855.071,1814.74 855.071,1898.93C855.071,1983.12 885.975,2359.9 885.975,2442.92C885.975,2525.93 922.693,2765.41 937.062,2816.49C951.43,2867.58 1026.46,2993.7 1075.95,3024.03C1125.44,3054.37 1176.53,3063.6 1216.44,3063.77C1256.36,3063.95 1323.41,3065.54 1372.9,3024.03C1422.39,2982.53 1428.78,2976.14 1460.7,2917.07C1492.63,2858 1502.21,2656.85 1508.6,2556.27C1514.99,2455.69 1516.58,2152.36 1508.6,2062.96C1500.62,1973.56 1500.62,1845.84 1508.6,1769.21C1516.58,1692.58 1529.35,1603.17 1548.51,1532.93C1567.67,1462.68 1561.28,1457.89 1567.67,1406.81C1574.05,1355.72 1575.65,1285.48 1567.67,1223.21C1559.69,1160.95 1558.09,1061.97 1535.74,983.742C1513.39,905.515 1497.42,832.077 1460.7,800.148C1423.99,768.219 1380.88,725.114 1286.69,736.289C1192.5,747.464 1135.02,753.85 1063.18,817.709C991.342,881.568 949.833,939.041 913.115,999.707C876.396,1060.37 842.87,1133.81 822.116,1223.21C801.362,1312.62 803.164,1342.23 804.427,1422.19Z" style="fill:none;stroke:black;stroke-width:16.36px;"/>
    </g>
</svg>
